<?xml version="1.0" encoding="UTF-8" standalone="no"?>
<!-- Created with Inkscape (http://www.inkscape.org/) -->

<svg
   width="100mm"
   height="100mm"
   viewBox="0 0 100 100"
   version="1.1"
   id="svg1"
   sodipodi:docname="feather2.svg"
   xml:space="preserve"
   inkscape:version="1.4.2 (ebf0e940d0, 2025-05-08)"
   xmlns:inkscape="http://www.inkscape.org/namespaces/inkscape"
   xmlns:sodipodi="http://sodipodi.sourceforge.net/DTD/sodipodi-0.dtd"
   xmlns="http://www.w3.org/2000/svg"
   xmlns:svg="http://www.w3.org/2000/svg"><sodipodi:namedview
     id="namedview1"
     pagecolor="#505050"
     bordercolor="#eeeeee"
     borderopacity="1"
     inkscape:showpageshadow="0"
     inkscape:pageopacity="0"
     inkscape:pagecheckerboard="0"
     inkscape:deskcolor="#505050"
     inkscape:document-units="mm"
     inkscape:zoom="0.88020765"
     inkscape:cx="69.301829"
     inkscape:cy="136.89951"
     inkscape:window-width="1920"
     inkscape:window-height="1080"
     inkscape:window-x="0"
     inkscape:window-y="0"
     inkscape:window-maximized="1"
     inkscape:current-layer="svg1" /><defs
     id="defs1" /><path
     style="fill:none;stroke:#000000;stroke-width:0.796083"
     d="M 13.343828,25.406654 18.310737,45.362337 26.206688,55.940798 38.890846,65.220189 28.937425,53.961496 18.984079,38.899018 30.706951,42.548594 37.342542,54.271466 48.512448,61.128242 53.489139,56.593922 56.735476,62.904542 55.811597,52.170196 62.004812,58.5846 57.581087,47.304098 60.898881,38.567239 67.86625,31.046905 82.796322,29.830382 89.431917,44.760453 88.215389,54.382058 78.593787,59.248159 85.892935,58.252819 78.48319,69.20154 59.239986,78.048991 69.082772,67.542643 77.487855,46.751131 64.32727,69.20154 50.945497,79.597296 42.304194,79.086868 44.48264,72.720891 37.231948,79.376109 26.615007,75.284165 23.518396,64.003663 23.076023,72.408741 14.670945,62.344765 15.555691,49.405368 12.01671,57.368074 14.11798,40.33673 10.468406,28.503262 Z"
     id="path1"
     sodipodi:nodetypes="ccccccccccccccccccccccccccccccccccccccc" /></svg>
