<?xml version="1.0" encoding="UTF-8" standalone="no"?>
<!-- Created with Inkscape (http://www.inkscape.org/) -->

<svg
   width="100mm"
   height="100mm"
   viewBox="0 0 100 100"
   version="1.1"
   id="svg1"
   sodipodi:docname="feather.svg"
   xml:space="preserve"
   inkscape:version="1.4.2 (ebf0e940d0, 2025-05-08)"
   xmlns:inkscape="http://www.inkscape.org/namespaces/inkscape"
   xmlns:sodipodi="http://sodipodi.sourceforge.net/DTD/sodipodi-0.dtd"
   xmlns="http://www.w3.org/2000/svg"
   xmlns:svg="http://www.w3.org/2000/svg"><sodipodi:namedview
     id="namedview1"
     pagecolor="#505050"
     bordercolor="#eeeeee"
     borderopacity="1"
     inkscape:showpageshadow="0"
     inkscape:pageopacity="0"
     inkscape:pagecheckerboard="0"
     inkscape:deskcolor="#505050"
     inkscape:document-units="mm"
     inkscape:zoom="1.7604153"
     inkscape:cx="101.39653"
     inkscape:cy="180.92322"
     inkscape:window-width="1916"
     inkscape:window-height="1076"
     inkscape:window-x="0"
     inkscape:window-y="0"
     inkscape:window-maximized="1"
     inkscape:current-layer="svg1" /><defs
     id="defs1" /><path
     style="display:inline;fill:none;stroke:#000000;stroke-width:0.765;stroke-dasharray:none"
     d="M 43.176688,81.784835 43.466599,64.615385 45.910931,51.968622 49.949393,37.621458 53.243926,29.863359 45.48583,39.109311 42.403847,46.761132 40.384616,58.876517 40.597166,70.035424 41.978744,84.488866 31.457489,76.199393 25.399797,63.977731 25.718623,54.731782 31.988865,65.890687 31.88259,57.70749 29.013158,47.823887 31.032389,29.119433 34.539473,20.829959 39.640687,16.791498 35.283401,31.988865 41.766193,22.211538 58.876517,10.202429 65.996962,2.7631578 70.247975,14.559716 70.460525,28.269231 66.422063,39.959515 56.857288,51.11842 64.402834,48.248987 56.751011,62.277326 47.721777,74.50879 45.401482,84.613389 45.901165,97.88344 Z"
     id="path1"
     sodipodi:nodetypes="ccccccccccccccccccccccccccccccccc"
     inkscape:label="path1" /></svg>
