<?xml version="1.0" encoding="UTF-8" standalone="no"?>
<!-- Created with Inkscape (http://www.inkscape.org/) -->

<svg
   width="100mm"
   height="100mm"
   viewBox="0 0 100 100"
   version="1.1"
   id="svg1"
   sodipodi:docname="feather3.svg"
   xml:space="preserve"
   inkscape:version="1.4.2 (ebf0e940d0, 2025-05-08)"
   xmlns:inkscape="http://www.inkscape.org/namespaces/inkscape"
   xmlns:sodipodi="http://sodipodi.sourceforge.net/DTD/sodipodi-0.dtd"
   xmlns="http://www.w3.org/2000/svg"
   xmlns:svg="http://www.w3.org/2000/svg"><sodipodi:namedview
     id="namedview1"
     pagecolor="#505050"
     bordercolor="#eeeeee"
     borderopacity="1"
     inkscape:showpageshadow="0"
     inkscape:pageopacity="0"
     inkscape:pagecheckerboard="0"
     inkscape:deskcolor="#505050"
     inkscape:document-units="mm"
     inkscape:zoom="1.7604153"
     inkscape:cx="140.02378"
     inkscape:cy="194.55636"
     inkscape:window-width="1920"
     inkscape:window-height="1080"
     inkscape:window-x="0"
     inkscape:window-y="0"
     inkscape:window-maximized="1"
     inkscape:current-layer="svg1" /><defs
     id="defs1" /><path
     style="fill:none;stroke:#000000;stroke-width:0.765"
     d="M 37.724289,82.963376 48.846192,74.546803 44.187017,67.783484 50.048559,68.234371 46.591751,62.222533 49.146782,53.505367 53.35507,55.910101 48.094712,48.545599 38.926656,41.78228 44.238589,38.553128 34.267481,40.429616 23.295876,37.573993 13.226046,40.129025 16.983445,29.307716 28.706532,20.590548 38.325472,18.636701 44.487607,23.746764 43.28524,19.538476 53.655663,22.544396 63.124309,28.255642 70.639108,34.868664 69.587035,41.78228 72.292363,38.475769 75.298283,50.499446 70.037922,57.713654 75.74917,55.459214 74.24621,67.783484 67.032004,70.639108 70.939699,72.893546 64.476973,77.703018 55.008327,76.200057 61.170462,58.014245 57.563358,41.78228 44.718394,30.605675 26.143947,30.356657 43.842402,32.966392 54.85803,43.134944 57.713654,59.817798 51.401223,75.448577 38.475769,86.57048 Z"
     id="path1"
     sodipodi:nodetypes="ccccccccccccccccccccccccccccccccccccccccc" /></svg>
